<svg width="137" height="137" viewBox="0 0 137 137" fill="none" xmlns="http://www.w3.org/2000/svg">
<path fill-rule="evenodd" clip-rule="evenodd" d="M102.299 0.223816C82.6656 2.28561 66.9365 12.4973 54.2563 31.4152L52.5199 34.0055L38.7507 34.0163C30.9124 34.0223 24.2494 34.1638 23.2812 34.3445C20.6845 34.8295 17.9435 36.3242 16.1282 38.2454C14.7578 39.6952 13.464 42.0603 7.3671 54.2611C-0.748734 70.5011 -0.750629 70.5062 0.798221 73.5174C1.4672 74.8174 2.08125 75.492 3.24462 76.2028L4.79757 77.1522L17.846 77.2473C25.0223 77.2997 30.8941 77.4091 30.8941 77.4899C30.8941 77.5711 30.1525 79.0924 29.2458 80.8701C27.6931 83.9154 27.5975 84.2402 27.5965 86.4723C27.5953 88.4279 27.7411 89.1176 28.4309 90.4215C29.5305 92.5003 44.6351 107.565 46.6793 108.622C47.7871 109.195 48.6215 109.359 50.4678 109.367C52.6875 109.377 53.0506 109.274 56.2701 107.719C58.159 106.807 59.7527 106.06 59.8117 106.06C59.8711 106.06 59.9591 112.078 60.0081 119.432L60.0968 132.804L60.9852 134.147C61.6005 135.077 62.3778 135.725 63.5108 136.253C66.5915 137.688 66.2565 137.805 82.622 129.615C98.8518 121.492 99.4498 121.103 101.273 117.472C102.782 114.467 102.874 113.367 102.882 98.3834L102.889 84.4187L105.329 82.8065C111.822 78.5148 119.416 71.7687 123.606 66.5684C131.002 57.3898 135.336 46.859 136.637 34.9082C137.356 28.3054 136.965 15.668 135.834 8.91014C135.157 4.86933 134.773 3.76324 133.744 2.89695C132.621 1.95135 131.41 1.61962 126.139 0.815879C121.417 0.0955464 106.943 -0.263672 102.299 0.223816ZM124.343 9.4703L127.026 9.85795L127.42 12.3854C128.027 16.2806 128.288 29.1436 127.846 33.4081C127.138 40.2364 125.798 45.268 123.25 50.6654C119.044 59.5736 111.447 67.8855 100.861 75.1583C99.0018 76.436 90.0777 81.0496 74.342 88.8674L50.6256 100.651L43.4844 93.5262L36.3435 86.4018L45.7278 67.4018C59.9377 38.6321 59.9317 38.6435 62.8952 34.5009C74.0396 18.9228 86.562 10.9334 102.745 9.07664C106.011 8.70194 120.904 8.97333 124.343 9.4703ZM98.1393 19.7003C97.8788 19.8049 97.3462 20.1815 96.9554 20.5372C96.2668 21.164 96.245 21.3659 96.245 27.1314V33.0792H90.3802H84.5153L83.5925 34.0027C82.7913 34.8045 82.6697 35.1603 82.6697 36.7039C82.6697 38.5907 83.2613 40.1416 84.1046 40.4655C84.3856 40.5732 87.2323 40.6617 90.4304 40.6617H96.245L96.2551 46.5854C96.2656 52.78 96.3382 53.1408 97.7238 53.8794C98.5989 54.3458 101.344 54.3556 102.352 53.8962C103.642 53.3079 103.822 52.38 103.822 46.3336V40.6617H109.761C115.29 40.6617 115.747 40.6174 116.387 40.0209C117.268 39.1998 117.513 38.1844 117.318 36.1612C117.198 34.9059 116.971 34.373 116.315 33.8087C115.496 33.1039 115.272 33.0792 109.645 33.0792H103.822V27.2521C103.822 21.5915 103.801 21.4 103.08 20.5618C102.453 19.8327 102.051 19.6845 100.476 19.6046C99.451 19.5527 98.3997 19.5957 98.1393 19.7003ZM47.9422 43.0328C47.9422 43.1206 45.1005 48.8785 41.6274 55.8281L35.3124 68.464H22.843C15.9846 68.464 10.3732 68.3923 10.3732 68.3044C10.3732 68.2166 13.0608 62.767 16.3458 56.194C22.2245 44.4311 22.7858 43.5231 24.4354 43.1035C25.254 42.8956 47.9422 42.8271 47.9422 43.0328ZM93.8753 111.962C93.7718 112.688 93.3986 113.65 93.0457 114.099C92.6346 114.622 88.2189 117.014 80.7588 120.755C74.3537 123.968 69.0379 126.596 68.946 126.596C68.8538 126.596 68.7787 120.933 68.7787 114.012V101.427L81.328 95.266L93.8772 89.105L93.9701 99.873C94.0212 105.796 93.9786 111.236 93.8753 111.962Z" fill="white"/>
</svg>
